<?xml version="1.0" standalone="no"?>
<!DOCTYPE svg PUBLIC "-//W3C//DTD SVG 20010904//EN"
 "http://www.w3.org/TR/2001/REC-SVG-20010904/DTD/svg10.dtd">
<svg version="1.0" xmlns="http://www.w3.org/2000/svg"
 width="512.000000pt" height="512.000000pt" viewBox="0 0 512.000000 512.000000"
 preserveAspectRatio="xMidYMid meet">

<g transform="translate(0.000000,512.000000) scale(0.100000,-0.100000)"
fill="#000000" stroke="none">
<path d="M0 2560 l0 -2560 2560 0 2560 0 0 2560 0 2560 -2560 0 -2560 0 0
-2560z m2580 1094 l0 -1074 1057 -2 1057 -3 0 -25 0 -25 -1057 -3 -1057 -2 0
-1080 0 -1080 -25 0 -25 0 0 1080 0 1080 -1055 0 -1055 0 0 30 0 30 1055 0
1055 0 0 1079 0 1078 25 -5 25 -4 0 -1074z m-1020 1050 c99 -26 210 -76 299
-135 l81 -53 0 -49 0 -49 -41 36 c-145 132 -345 206 -554 206 -124 0 -211 -16
-311 -56 -252 -100 -434 -299 -506 -551 -32 -111 -32 -295 0 -407 132 -461
636 -716 1099 -557 95 33 197 91 266 151 l47 42 0 -50 0 -50 -81 -52 c-90 -58
-181 -98 -285 -126 -54 -15 -105 -19 -234 -19 -189 0 -261 15 -407 85 -242
117 -408 318 -480 581 -25 91 -24 308 1 404 88 336 369 594 714 660 98 19 302
13 392 -11z m2495 -4 c86 -22 213 -82 285 -135 77 -57 191 -185 239 -269 227
-398 112 -901 -263 -1151 -275 -182 -609 -193 -891 -28 -91 53 -220 176 -280
267 -184 283 -186 662 -3 947 134 209 351 352 593 389 83 12 228 4 320 -20z
m-30 -2619 c256 -68 464 -239 580 -476 69 -141 90 -233 88 -385 -4 -374 -241
-688 -615 -816 -104 -35 -204 -47 -340 -41 -184 8 -343 59 -482 155 -67 46
-68 48 -70 93 l-2 46 71 -54 c86 -67 206 -126 311 -154 62 -17 109 -22 214
-23 167 0 233 15 390 92 105 51 124 64 216 156 90 90 107 113 153 206 62 126
81 208 81 356 0 182 -49 328 -162 478 -96 127 -264 242 -433 296 -108 34 -322
40 -435 11 -112 -28 -227 -83 -322 -153 -43 -32 -79 -58 -81 -58 -1 0 -2 19
-1 42 1 40 5 46 55 81 105 75 234 131 370 162 93 21 309 14 414 -14z m-2540
-15 c92 -25 232 -97 313 -161 140 -109 255 -289 303 -470 30 -113 30 -308 0
-420 -127 -479 -606 -755 -1068 -614 -274 83 -497 322 -574 614 -29 112 -29
307 0 420 43 166 157 351 278 452 114 96 265 169 401 193 70 13 278 4 347 -14z"/>
<path d="M3681 4645 c-153 -34 -336 -155 -438 -290 -115 -152 -165 -301 -166
-490 0 -152 18 -228 85 -365 45 -91 64 -118 143 -196 55 -55 118 -108 162
-133 422 -249 945 -44 1117 437 30 84 31 93 31 247 0 139 -3 170 -23 235 -85
273 -301 483 -566 550 -94 24 -247 26 -345 5z"/>
<path d="M1175 2021 c-313 -52 -562 -281 -646 -596 -30 -111 -30 -288 0 -400
60 -228 214 -416 426 -519 110 -54 204 -76 328 -76 219 0 437 104 582 278 68
81 148 240 169 339 23 103 21 270 -4 369 -25 101 -95 242 -157 319 -102 126
-264 233 -410 269 -75 20 -220 28 -288 17z"/>
</g>
</svg>
